<svg xmlns="http://www.w3.org/2000/svg" width="32" height="32" viewBox="0 0 100 125" x="0px" y="0px">
  <title>billiard</title>
  <g data-name="billiard">
    <path d="M94.10175,5.89894a3.57585,3.57585,0,0,0-5.04375-.0084L84.54433,10.2922l-76.4,74.526c-.17353.16912.02746-.08766-3.14727,5.1792a1,1,0,0,0,.15039,1.22177l3.63418,3.634a1,1,0,0,0,1.22168.15029c5.24185-3.15961,5.00883-2.97245,5.17911-3.14717L89.70859,15.456l4.39375-4.50547A3.5786,3.5786,0,0,0,94.10175,5.89894ZM31.45849,64.86984,85.23393,12.4135l2.35322,2.3532L35.13085,68.542ZM9.64355,92.88673,7.11386,90.35714,9.041,87.14655l3.81309,3.81308ZM88.98368,13.33488l-2.318-2.31789L88.471,9.25646l2.27313,2.27319Z"/>
  </g>
</svg>